<?xml version="1.0" encoding="UTF-8"?>
<svg width="1200pt" height="1200pt" version="1.1" viewBox="0 0 1200 1200" xmlns="http://www.w3.org/2000/svg">
 <path d="m843.75 1143.8h-131.25c-6.6992 0-12.887-3.5742-16.238-9.375-3.3477-5.8008-3.3477-12.949 0-18.75 3.3516-5.8008 9.5391-9.375 16.238-9.375h131.25c6.6992 0 12.887 3.5742 16.238 9.375 3.3477 5.8008 3.3477 12.949 0 18.75-3.3516 5.8008-9.5391 9.375-16.238 9.375zm281.25-93.75c0-4.9727-1.9766-9.7422-5.4922-13.258-3.5156-3.5156-8.2852-5.4922-13.258-5.4922h-131.25c-6.6992 0-12.887 3.5742-16.238 9.375-3.3477 5.8008-3.3477 12.949 0 18.75 3.3516 5.8008 9.5391 9.375 16.238 9.375h131.25c4.9727 0 9.7422-1.9766 13.258-5.4922 3.5156-3.5156 5.4922-8.2852 5.4922-13.258zm-206.25 0c0-4.9727-1.9766-9.7422-5.4922-13.258-3.5156-3.5156-8.2852-5.4922-13.258-5.4922h-131.25c-6.6992 0-12.887 3.5742-16.238 9.375-3.3477 5.8008-3.3477 12.949 0 18.75 3.3516 5.8008 9.5391 9.375 16.238 9.375h131.25c4.9727 0 9.7422-1.9766 13.258-5.4922 3.5156-3.5156 5.4922-8.2852 5.4922-13.258zm56.25 75c0-4.9727-1.9766-9.7422-5.4922-13.258-3.5156-3.5156-8.2852-5.4922-13.258-5.4922h-37.5c-6.6992 0-12.887 3.5742-16.238 9.375-3.3477 5.8008-3.3477 12.949 0 18.75 3.3516 5.8008 9.5391 9.375 16.238 9.375h37.5c4.9727 0 9.7422-1.9766 13.258-5.4922 3.5156-3.5156 5.4922-8.2852 5.4922-13.258zm-487.5 0c0-4.9727-1.9766-9.7422-5.4922-13.258-3.5156-3.5156-8.2852-5.4922-13.258-5.4922h-131.25c-6.6992 0-12.887 3.5742-16.238 9.375-3.3477 5.8008-3.3477 12.949 0 18.75 3.3516 5.8008 9.5391 9.375 16.238 9.375h131.25c4.9727 0 9.7422-1.9766 13.258-5.4922 3.5156-3.5156 5.4922-8.2852 5.4922-13.258zm-262.5-75c0-4.9727-1.9766-9.7422-5.4922-13.258-3.5156-3.5156-8.2852-5.4922-13.258-5.4922h-131.25c-6.6992 0-12.887 3.5742-16.238 9.375-3.3477 5.8008-3.3477 12.949 0 18.75 3.3516 5.8008 9.5391 9.375 16.238 9.375h131.25c4.9727 0 9.7422-1.9766 13.258-5.4922 3.5156-3.5156 5.4922-8.2852 5.4922-13.258zm206.25 0c0-4.9727-1.9766-9.7422-5.4922-13.258-3.5156-3.5156-8.2852-5.4922-13.258-5.4922h-131.25c-6.6992 0-12.887 3.5742-16.238 9.375-3.3477 5.8008-3.3477 12.949 0 18.75 3.3516 5.8008 9.5391 9.375 16.238 9.375h131.25c4.9727 0 9.7422-1.9766 13.258-5.4922 3.5156-3.5156 5.4922-8.2852 5.4922-13.258zm-150 75c0-4.9727-1.9766-9.7422-5.4922-13.258-3.5156-3.5156-8.2852-5.4922-13.258-5.4922h-37.5c-6.6992 0-12.887 3.5742-16.238 9.375-3.3477 5.8008-3.3477 12.949 0 18.75 3.3516 5.8008 9.5391 9.375 16.238 9.375h37.5c4.9727 0 9.7422-1.9766 13.258-5.4922 3.5156-3.5156 5.4922-8.2852 5.4922-13.258zm618.75-618.75c-29.836 0-58.453 11.852-79.551 32.949-21.098 21.098-32.949 49.715-32.949 79.551s11.852 58.453 32.949 79.551c21.098 21.098 49.715 32.949 79.551 32.949s58.453-11.852 79.551-32.949c21.098-21.098 32.949-49.715 32.949-79.551-0.03125-29.828-11.895-58.422-32.988-79.512-21.09-21.094-49.684-32.957-79.512-32.988zm225 450h-469.86c-4.6523-41.227-24.309-79.297-55.227-106.96-30.918-27.664-70.93-42.984-112.42-43.039h-37.5c-32.039 0.050781-63.406 9.2148-90.43 26.43-27.023 17.215-48.59 41.762-62.18 70.777-20.602-31.578-53.781-52.777-91.09-58.203-58.645-10.879-78.762-386.35 74.949-414 10.324 12.488 21.094 37.5 56.25 37.5 14.914-0.015625 29.211-5.9492 39.758-16.492 10.543-10.547 16.477-24.844 16.492-39.758-0.058594-8.875-2.2461-17.609-6.375-25.465 76.664-1.8125 153.37 0.37891 229.8 6.5625 4.1914 0.35938 8.3789-0.70703 11.891-3.0195 3.5078-2.3125 6.1406-5.7383 7.4648-9.7305l10.984-32.969 35.832 23.887c2.7539 1.8281 5.9414 2.9023 9.2383 3.1055 3.2969 0.20703 6.5938-0.46094 9.5508-1.9336l112.5-56.25c5.7305-2.8633 9.6055-8.457 10.27-14.828 0.66406-6.375-1.9727-12.645-6.9922-16.629-202.03-160.42-388.81-37.836-470.42 34.516 18.195-36.574 50.371-64.266 89.25-76.812 5.8008-1.7734 10.379-6.2461 12.285-12l14.484-43.434h42.738c3.7461 0 7.4102-1.125 10.512-3.2227 3.1055-2.1016 5.5078-5.082 6.9023-8.5586l37.5-93.75c2.207-5.5195 1.6719-11.754-1.4492-16.812-3.1172-5.0586-8.4492-8.3398-14.371-8.8438-5.0898-0.40234-125.32-9.7695-198.18 68.84-35.09 40.188-53.77 92.105-52.324 145.44-13.262-36.945-37.543-68.93-69.562-91.633-23.074-14.215-48.855-23.465-75.699-27.156-26.848-3.6953-54.168-1.7539-80.223 5.6992-5.1719 1.625-9.3828 5.4102-11.551 10.379-2.168 4.9688-2.0742 10.633 0.25391 15.531 11.598 33.598 17.324 68.938 16.938 104.48 0 5.7734 2.6602 11.223 7.2109 14.773 4.5469 3.5547 10.48 4.8125 16.082 3.4141l51.707-12.93v13.484c0 4.2109 1.418 8.2969 4.0273 11.605 2.6055 3.3086 6.25 5.6406 10.348 6.6211 28.859 7.3359 56.215 19.668 80.824 36.438-200.01 174.27-154.7 499.89-151.36 521.94-24.094 24.469-37.594 57.434-37.586 91.77 0 4.9727 1.9766 9.7422 5.4922 13.258 3.5156 3.5156 8.2852 5.4922 13.258 5.4922h422.93c-6.7539 11.348-10.355 24.293-10.43 37.5 0.019531 19.883 7.9297 38.949 21.992 53.008 14.059 14.062 33.125 21.973 53.008 21.992h56.25c6.6992 0 12.887-3.5742 16.238-9.375 3.3477-5.8008 3.3477-12.949 0-18.75-3.3516-5.8008-9.5391-9.375-16.238-9.375h-56.25c-13.398 0-25.777-7.1484-32.477-18.75-6.6992-11.602-6.6992-25.898 0-37.5 6.6992-11.602 19.078-18.75 32.477-18.75h562.5c6.6992 0 12.887-3.5742 16.238-9.375 3.3477-5.8008 3.3477-12.949 0-18.75-3.3516-5.8008-9.5391-9.375-16.238-9.375zm-206.25-506.25v-56.25c0-6.6992-3.5742-12.887-9.375-16.238-5.8008-3.3477-12.949-3.3477-18.75 0-5.8008 3.3516-9.375 9.5391-9.375 16.238v56.25c0 6.6992 3.5742 12.887 9.375 16.238 5.8008 3.3477 12.949 3.3477 18.75 0 5.8008-3.3516 9.375-9.5391 9.375-16.238zm125.76 69.508 18.75-18.75c4.5977-4.7656 6.3438-11.598 4.5938-17.984-1.75-6.3867-6.7383-11.375-13.125-13.125-6.3867-1.75-13.219-0.003907-17.984 4.5938l-18.75 18.75c-3.6172 3.4961-5.6797 8.2969-5.7227 13.324-0.042969 5.0312 1.9375 9.8672 5.4922 13.422 3.5547 3.5547 8.3906 5.5352 13.422 5.4922 5.0273-0.042969 9.8281-2.1055 13.324-5.7227zm18.75 243.75c3.5156-3.5195 5.4883-8.2852 5.4883-13.258s-1.9727-9.7422-5.4883-13.258l-18.75-18.75c-4.7617-4.6172-11.605-6.375-18-4.6289-6.3984 1.75-11.395 6.7461-13.145 13.145-1.7461 6.3945 0.011719 13.238 4.6289 18l18.75 18.75c3.5195 3.5117 8.2852 5.4883 13.258 5.4883s9.7383-1.9766 13.258-5.4883zm-281.25-243.75c3.5156-3.5195 5.4883-8.2852 5.4883-13.258s-1.9727-9.7422-5.4883-13.258l-18.75-18.75c-4.7617-4.6172-11.605-6.375-18-4.6289-6.3984 1.75-11.395 6.7461-13.145 13.145-1.7461 6.3945 0.011719 13.238 4.6289 18l18.75 18.75c3.5195 3.5117 8.2852 5.4883 13.258 5.4883s9.7383-1.9766 13.258-5.4883zm-18.75 243.75 18.75-18.75c4.5977-4.7656 6.3438-11.598 4.5938-17.984-1.75-6.3867-6.7383-11.375-13.125-13.125-6.3867-1.75-13.219-0.003907-17.984 4.5938l-18.75 18.75c-3.6172 3.4961-5.6797 8.2969-5.7227 13.324-0.042969 5.0312 1.9375 9.8672 5.4922 13.422 3.5547 3.5547 8.3906 5.5352 13.422 5.4922 5.0273-0.042969 9.8281-2.1055 13.324-5.7227zm380.49-144.51c0-4.9727-1.9766-9.7422-5.4922-13.258-3.5156-3.5156-8.2852-5.4922-13.258-5.4922h-56.25c-6.6992 0-12.887 3.5742-16.238 9.375-3.3477 5.8008-3.3477 12.949 0 18.75 3.3516 5.8008 9.5391 9.375 16.238 9.375h56.25c4.9727 0 9.7422-1.9766 13.258-5.4922 3.5156-3.5156 5.4922-8.2852 5.4922-13.258zm-393.75 0c0-4.9727-1.9766-9.7422-5.4922-13.258-3.5156-3.5156-8.2852-5.4922-13.258-5.4922h-56.25c-6.6992 0-12.887 3.5742-16.238 9.375-3.3477 5.8008-3.3477 12.949 0 18.75 3.3516 5.8008 9.5391 9.375 16.238 9.375h56.25c4.9727 0 9.7422-1.9766 13.258-5.4922 3.5156-3.5156 5.4922-8.2852 5.4922-13.258zm168.75 225v-56.25c0-6.6992-3.5742-12.887-9.375-16.238-5.8008-3.3477-12.949-3.3477-18.75 0-5.8008 3.3516-9.375 9.5391-9.375 16.238v56.25c0 6.6992 3.5742 12.887 9.375 16.238 5.8008 3.3477 12.949 3.3477 18.75 0 5.8008-3.3516 9.375-9.5391 9.375-16.238zm-225 187.5c-4.9727 0-9.7422 1.9766-13.258 5.4922-3.5156 3.5156-5.4922 8.2852-5.4922 13.258s1.9766 9.7422 5.4922 13.258c3.5156 3.5156 8.2852 5.4922 13.258 5.4922s9.7422-1.9766 13.258-5.4922c3.5156-3.5156 5.4922-8.2852 5.4922-13.258s-1.9766-9.7422-5.4922-13.258c-3.5156-3.5156-8.2852-5.4922-13.258-5.4922z"/>
</svg>
