<svg xmlns="http://www.w3.org/2000/svg" viewBox="0 0 500 500"><g id="freepik--background-complete--inject-9"><rect y="382.4" width="500" height="0.25" style="fill:#ebebeb"></rect><rect x="416.78" y="398.49" width="33.12" height="0.25" style="fill:#ebebeb"></rect><rect x="322.53" y="401.21" width="8.69" height="0.25" style="fill:#ebebeb"></rect><rect x="396.59" y="389.21" width="19.19" height="0.25" style="fill:#ebebeb"></rect><rect x="52.46" y="390.89" width="43.19" height="0.25" style="fill:#ebebeb"></rect><rect x="104.56" y="390.89" width="6.33" height="0.25" style="fill:#ebebeb"></rect><rect x="131.47" y="395.11" width="93.68" height="0.25" style="fill:#ebebeb"></rect><path d="M237,337.8H43.91a5.71,5.71,0,0,1-5.7-5.71V60.66A5.71,5.71,0,0,1,43.91,55H237a5.71,5.71,0,0,1,5.71,5.71V332.09A5.71,5.71,0,0,1,237,337.8ZM43.91,55.2a5.46,5.46,0,0,0-5.45,5.46V332.09a5.46,5.46,0,0,0,5.45,5.46H237a5.47,5.47,0,0,0,5.46-5.46V60.66A5.47,5.47,0,0,0,237,55.2Z" style="fill:#ebebeb"></path><path d="M453.31,337.8H260.21a5.72,5.72,0,0,1-5.71-5.71V60.66A5.72,5.72,0,0,1,260.21,55h193.1A5.71,5.71,0,0,1,459,60.66V332.09A5.71,5.71,0,0,1,453.31,337.8ZM260.21,55.2a5.47,5.47,0,0,0-5.46,5.46V332.09a5.47,5.47,0,0,0,5.46,5.46h193.1a5.47,5.47,0,0,0,5.46-5.46V60.66a5.47,5.47,0,0,0-5.46-5.46Z" style="fill:#ebebeb"></path><path d="M73.77,98.27a4.45,4.45,0,0,1,2.63,1.12c2.14-3.9,5.84-6.28,10.22-6a12.58,12.58,0,0,1,6.31,2.24s0,0,0,0c1.29-5.86,4.91-10,9.33-10A9,9,0,0,1,109,89.18c2.56-3.94,6.16-6.36,10.23-6.36,5,0,9.64,3.72,12.6,9.44a6.57,6.57,0,0,1,5.06-2.65c2.69,0,5.16,1.89,6.82,4.83a6.11,6.11,0,0,1,.73,0,11.09,11.09,0,0,1,9.24,8.65H69.57C69.57,100.27,71.38,98.12,73.77,98.27Z" style="fill:#ebebeb"></path><path d="M216.28,137a4,4,0,0,0-2.35,1,9.67,9.67,0,0,0-9.11-5.37,11.25,11.25,0,0,0-5.62,2s0,0,0,0c-1.14-5.22-4.38-8.93-8.32-8.93a8,8,0,0,0-6,3.2c-2.29-3.51-5.5-5.67-9.12-5.67-4.49,0-8.59,3.32-11.23,8.41a5.85,5.85,0,0,0-4.51-2.35c-2.4,0-4.6,1.67-6.08,4.3a4.82,4.82,0,0,0-.65,0,9.88,9.88,0,0,0-8.23,7.71h75C220,138.75,218.41,136.84,216.28,137Z" style="fill:#f5f5f5"></path><circle cx="393.78" cy="97.22" r="23" style="fill:#f5f5f5"></circle><path d="M137.83,219.47S126.07,212.06,122,225c31.25,103.21-3.7,157.4-3.7,157.4h40.53C173.87,294.33,137.83,219.47,137.83,219.47Z" style="fill:#ebebeb"></path><path d="M109,214.93s-28.67,9.67-42.34,45.33c19.45-14.55,49.34-30,59.45-29.55Z" style="fill:#f5f5f5"></path><path d="M112.82,222.27s-17.65,24.57-8,61.51c7.32-23.16,22.6-53.13,31.07-58.66Z" style="fill:#f5f5f5"></path><path d="M136,214.57s-7-29.44-41.26-46.31c12.71,20.69,25.35,51.87,24,61.9Z" style="fill:#f5f5f5"></path><path d="M128.38,217.74s-22.85-19.83-60.53-13.57c22.4,9.41,50.84,27.37,55.58,36.32Z" style="fill:#f5f5f5"></path><path d="M138.37,203.65s29.09-8.31,60.58,13.29c-24.27-.95-57.64,3.31-65.71,9.41Z" style="fill:#f5f5f5"></path><path d="M139.35,211.89s28.48,10.2,41.48,46.12c-19.17-14.92-48.76-30.92-58.88-30.67Z" style="fill:#f5f5f5"></path><path d="M124,217s7.55-29.29,42.12-45.53C153,191.92,139.78,222.85,141,232.91Z" style="fill:#f5f5f5"></path><path d="M336.28,185.18s14.24-9,19.22,6.7C317.68,316.81,360,382.4,360,382.4H310.93C292.66,275.8,336.28,185.18,336.28,185.18Z" style="fill:#ebebeb"></path><path d="M370.08,182.56s31.27,19.05,37.91,64.8c-19.08-22.37-50.26-48.56-62.32-50.73Z" style="fill:#f5f5f5"></path><path d="M358.15,187s18.43,37.65-3.37,85.89c-4.62-33.34-18.56-77.83-28.86-87.36Z" style="fill:#f5f5f5"></path><path d="M341.87,167.66s27-24.79,72.76-18.52c-26.77,12.15-60.56,34.88-66,45.86Z" style="fill:#f5f5f5"></path><path d="M357.08,169.75s35.24-10,73.29,16.3c-29.38-1.23-69.79,3.8-79.58,11.16Z" style="fill:#f5f5f5"></path><path d="M335.63,166S300.42,156,262.3,182.13c29.37-1.15,69.77,4,79.54,11.39Z" style="fill:#f5f5f5"></path><path d="M339.27,176.64s-43.14,3.41-74.54,48.14c32-13.42,78.91-24.43,92.78-20.29Z" style="fill:#f5f5f5"></path><path d="M352.88,173s-18.19-31.78-63.75-39.65c21.84,19.68,47.18,51.55,49,63.66Z" style="fill:#f5f5f5"></path></g><g id="freepik--Shadow--inject-9"><ellipse id="freepik--path--inject-9" cx="250" cy="416.24" rx="193.89" ry="11.32" style="fill:#f5f5f5"></ellipse></g><g id="freepik--Sunbed--inject-9"><path d="M165.07,406l108.45-31.45L164.43,303.77a2.41,2.41,0,1,1,2.62-4l112.59,73.08,69.24-20.08a2.41,2.41,0,1,1,1.34,4.63L285,376.28l46.28,30a2.41,2.41,0,1,1-2.62,4.05l-49.78-32.32L166.41,410.66a2.59,2.59,0,0,1-.67.1,2.41,2.41,0,0,1-.67-4.73Z" style="fill:#8955E1"></path><path d="M165.07,406l108.45-31.45L164.43,303.77a2.41,2.41,0,1,1,2.62-4l112.59,73.08,69.24-20.08a2.41,2.41,0,1,1,1.34,4.63L285,376.28l46.28,30a2.41,2.41,0,1,1-2.62,4.05l-49.78-32.32L166.41,410.66a2.59,2.59,0,0,1-.67.1,2.41,2.41,0,0,1-.67-4.73Z" style="opacity:0.2"></path><path d="M299.42,378.71c-33.91,0-113.76-42.9-133.68-77H104c19.92,34.06,99.77,77,133.68,77" style="fill:#8955E1"></path><path d="M299.42,378.71c-33.91,0-113.76-42.9-133.68-77H104c19.92,34.06,99.77,77,133.68,77" style="fill:#fff;opacity:0.7000000000000001"></path><path d="M287.85,355.05h61.7s-16.22,23.66-50.13,23.66h-61.7C271.63,378.71,287.85,355.05,287.85,355.05Z" style="fill:#8955E1"></path><path d="M287.85,355.05h61.7s-16.22,23.66-50.13,23.66h-61.7C271.63,378.71,287.85,355.05,287.85,355.05Z" style="fill:#fff;opacity:0.4"></path><path d="M268.25,410.76a2.41,2.41,0,0,1-1.31-.39L102.73,303.77a2.41,2.41,0,1,1,2.62-4L269.56,406.32a2.41,2.41,0,0,1-1.31,4.44Z" style="fill:#8955E1"></path><path d="M104,410.76a2.41,2.41,0,0,1-.67-4.73l183.81-53.3a2.41,2.41,0,1,1,1.34,4.63l-183.81,53.3A2.59,2.59,0,0,1,104,410.76Z" style="fill:#8955E1"></path></g><g id="freepik--Character--inject-9"><path d="M284.79,171.78c-4.49,5.42-9.06,10.85-13.64,16.23l-6.83,8.07-3.37,4-3.4,4.12a15.38,15.38,0,0,1-7.33,5.12,16.07,16.07,0,0,1-8.48.21,24.45,24.45,0,0,1-6.4-2.57,40.26,40.26,0,0,1-5.11-3.43,66.85,66.85,0,0,1-8.33-7.92c-1.25-1.4-2.43-2.84-3.58-4.3s-2.23-2.92-3.31-4.56a3.58,3.58,0,0,1,5.41-4.62l.11.1c1.2,1.1,2.52,2.3,3.79,3.42s2.63,2.21,4,3.27a71.15,71.15,0,0,0,8.11,5.7,32.34,32.34,0,0,0,4.06,2.06,14,14,0,0,0,3.62,1,3.32,3.32,0,0,0,2.07-.25,3.63,3.63,0,0,0,1.11-1.18l3.08-4.37c1-1.49,2.13-2.93,3.2-4.38q3.22-4.35,6.56-8.58c4.45-5.66,9-11.16,13.76-16.58a7.21,7.21,0,0,1,11,9.35Z" style="fill:#b55b52"></path><path d="M273.54,172.73c-2.47,4.45-4.15,11.71-4.14,17.35l1.32-1.56c2.58-3.05,5.18-6.1,7.75-9.16.2-.45.38-.9.56-1.35C277.28,173.25,275.22,169.71,273.54,172.73Z" style="opacity:0.2"></path><path d="M224,186.28l-6-8.52-7,9.91a9.14,9.14,0,0,0,10.13,3.86Z" style="fill:#b55b52"></path><polygon points="212.16 174.78 208.47 183.74 211.06 187.67 218.07 177.76 212.16 174.78" style="fill:#b55b52"></polygon><path d="M271.45,170.28c.55,10.82,2.8,36.77,1.38,74.29l50.83,2.75c3.94-26.74,2.6-52,2.59-77.24,0-7.24-5.63-13.71-12.87-14.25a68.54,68.54,0,0,0-7.73-.22,181.38,181.38,0,0,0-21.28,1.9c-1.52.29-3,.62-4.44,1A11.28,11.28,0,0,0,271.45,170.28Z" style="fill:#b55b52"></path><path d="M306.68,181.1a1,1,0,0,1,0,1.34,1,1,0,0,1-1.34-1.48A1,1,0,0,1,306.68,181.1Z" style="opacity:0.2"></path><path d="M291.81,230.84c.23.5.2,1-.08,1.15s-.69-.16-.92-.66-.19-1,.09-1.15S291.58,230.34,291.81,230.84Z" style="opacity:0.2"></path><path d="M277.43,182.55a.94.94,0,0,1,0,1.34,1,1,0,1,1,0-1.34Z" style="opacity:0.2"></path><path d="M326.37,186.16l-4.82-4.08a79.19,79.19,0,0,0,4.93,17.54C326.47,195.12,326.42,190.63,326.37,186.16Z" style="opacity:0.2"></path><path d="M272.19,247s-7.6,60.87-11.11,89.68c-3.65,30,38.84,63.11,38.84,63.11l5.53-4.63s-27.28-42-24.63-54.77c6.57-31.63,25.71-69.74,24.78-94.64Z" style="fill:#b55b52"></path><path d="M290.22,246.29s8.16,61.37,12.37,88.91c4.62,30.17,7.27,78.22,7.27,78.22l7.69-2.52S325.24,363.32,322,337c-3-24.39,1.88-68.1,1-91.91Z" style="fill:#b55b52"></path><path d="M296.06,302s-20.69,1.27-31.16-7.79c1.93-8.82,1.78-42.7,6.27-47.52a12.56,12.56,0,0,1,.2-5.56l39.1,1.74C312.59,250.08,305,291.22,296.06,302Z" style="fill:#263238"></path><path d="M293.14,270.07c-5.13,4.06-7.08,20.44-5.66,31.69a67.57,67.57,0,0,0,8.59.18c4.07-4.88,7.86-16.08,10.58-27.5C301.05,271.8,294.19,269.25,293.14,270.07Z" style="opacity:0.2"></path><path d="M293.52,303.87s17.28,2.49,30.22-2.95c6.47-11.69,3.11-42.69,1.12-51.81a9.66,9.66,0,0,0,.42-6.26l-36.71-1C284.52,248.24,290.22,286.92,293.52,303.87Z" style="fill:#263238"></path><path d="M320.94,299.39h-.05a.24.24,0,0,1-.18-.29c4.89-20.29.47-48.63,0-50.13a.33.33,0,0,1,0-.14,10.64,10.64,0,0,0,0-5,.24.24,0,0,1,.17-.29.24.24,0,0,1,.29.17,10.79,10.79,0,0,1,0,5.18c.87,3.06,4.66,30.91,0,50.31A.26.26,0,0,1,320.94,299.39Z" style="fill:#fff"></path><path d="M291.23,245.74a.57.57,0,0,0-.53-.19.55.55,0,0,0-.44.48c-.13,1.19-1.21,11.5,1.12,14.1l.16.16a1.82,1.82,0,0,0,1.74.44,3,3,0,0,0,2.2-1.87c1.23-3.24-2.09-9.55-4.18-13Zm.94,13.61c-1.28-1.43-1.29-7.17-.95-11.45,2.71,4.82,3.9,8.69,3.2,10.5a1.89,1.89,0,0,1-1.45,1.21.71.71,0,0,1-.7-.16Z" style="fill:#8955E1"></path><path d="M286.37,245.54l-.1-.09a.55.55,0,0,0-.55-.06c-.25.11-6,2.71-7.28,6.41a4.29,4.29,0,0,0,.21,3.33c.7,1.46,1.61,1.64,2.24,1.54,2.67-.45,5.45-7.54,5.63-10.7A.61.61,0,0,0,286.37,245.54ZM280,255.26a3.15,3.15,0,0,1-.38-.6,3.09,3.09,0,0,1-.14-2.44c.82-2.43,4.12-4.44,5.76-5.31-.6,3.36-3,8.36-4.61,8.62C280.57,255.55,280.33,255.59,280,255.26Z" style="fill:#8955E1"></path><path d="M319.12,415.43c-.11-2.56-1.91-5.35-1.08-9.69,0,0-7.27-1.68-8.49,1.48s-7,6.7-15.92,8.08c-1.25.19-.23,3.74,2.68,3.6,4.82-.23,8.36-.47,12.47-.66,3.51-.17,4.45.56,7.25.62C318.36,418.9,319.23,418,319.12,415.43Z" style="fill:#b55b52"></path><path d="M309.58,397.92c-1.65-1.95-4.79-3.05-6.79-7,0,0-6.77,3.12-5.8,6.37s-1.45,9.6-7.63,16.14c-.87.91,2.11,3.1,4.33,1.2,3.66-3.13,6.31-5.49,9.44-8.16,2.67-2.29,3.86-2.28,6.1-4C311.11,401.13,311.25,399.88,309.58,397.92Z" style="fill:#b55b52"></path><path d="M314.23,190.15a44.54,44.54,0,1,0,58.5,23.37A44.56,44.56,0,0,0,314.23,190.15Zm24.93,58.09A18.67,18.67,0,1,1,349,223.73,18.66,18.66,0,0,1,339.16,248.24Z" style="fill:#8955E1"></path><g style="opacity:0.8"><path d="M340.64,251.69a22.38,22.38,0,0,1-7.71,1.8,4.47,4.47,0,0,0-4.13,5.69l2.75,9.45a4.47,4.47,0,0,0,4.78,3.18,41.26,41.26,0,0,0,21.86-9.38,4.45,4.45,0,0,0,1-5.65l-4.95-8.51a4.47,4.47,0,0,0-7-.93A22.39,22.39,0,0,1,340.64,251.69Z" style="fill:#fff"></path><path d="M304.42,205.4l4.95,8.51a4.48,4.48,0,0,0,7,.93,22.5,22.5,0,0,1,14.31-6.15,4.46,4.46,0,0,0,4.13-5.69L332,193.55a4.46,4.46,0,0,0-4.78-3.18,41.26,41.26,0,0,0-21.86,9.38A4.46,4.46,0,0,0,304.42,205.4Z" style="fill:#fff"></path><path d="M294.26,230.85a4.45,4.45,0,0,0-3.18,4.77,41,41,0,0,0,9.38,21.86,4.45,4.45,0,0,0,5.65,1l8.5-5a4.48,4.48,0,0,0,.93-7,22.48,22.48,0,0,1-6.14-14.31,4.48,4.48,0,0,0-5.7-4.14Z" style="fill:#fff"></path><path d="M357.48,203.71l-8.5,4.95a4.48,4.48,0,0,0-.93,7A22.48,22.48,0,0,1,354.19,230a4.48,4.48,0,0,0,5.7,4.14l9.45-2.76a4.45,4.45,0,0,0,3.18-4.77,41.17,41.17,0,0,0-9.38-21.86A4.47,4.47,0,0,0,357.48,203.71Z" style="fill:#fff"></path></g><path d="M319,201.19a32.54,32.54,0,1,0,42.74,17.07A32.54,32.54,0,0,0,319,201.19Zm20.2,47.05A18.67,18.67,0,1,1,349,223.73,18.66,18.66,0,0,1,339.16,248.24Z" style="fill:#263238;opacity:0.1"></path><path d="M139.08,222.88h0a1.47,1.47,0,0,1,.7-2l107.13-50.79,1.26,2.65L141,223.57A1.46,1.46,0,0,1,139.08,222.88Z" style="fill:#263238"></path><path d="M139.08,222.88h0a1.47,1.47,0,0,1,.7-2l60.08-28.48,1.25,2.65L141,223.57A1.46,1.46,0,0,1,139.08,222.88Z" style="fill:#8955E1;opacity:0.8"></path><polygon points="206.4 201.64 198.13 184.2 351.68 120.48 352.91 123.09 206.4 201.64" style="fill:#8955E1"></polygon><polygon points="204.64 197.93 199.89 187.91 351.94 121.04 352.65 122.53 204.64 197.93" style="opacity:0.2"></polygon><polygon points="203.15 194.77 201.39 191.06 352.16 121.51 352.42 122.06 203.15 194.77" style="fill:#8955E1"></polygon><polygon points="366.72 115.51 366.28 114.59 351.88 120.92 352.7 122.65 366.72 115.51" style="fill:#8955E1"></polygon><polygon points="366.72 115.51 366.28 114.59 351.88 120.92 352.7 122.65 366.72 115.51" style="fill:#fff;opacity:0.4"></polygon><path d="M305.08,134c-1.23,7-2.35,19.75,2.61,24.3,0,0-1.77,7.09-14.69,7.34-8.63.16-9.33-2.43-8.56-4.49a5.25,5.25,0,0,1,3.12-2.91c6.18-2.32,5.82-7.65,4.47-12.66Z" style="fill:#b55b52"></path><path d="M299.76,138.67,292,145.52a22.84,22.84,0,0,1,.73,3.83c2,.24,7.47-2.51,7.73-5.62A17.11,17.11,0,0,0,299.76,138.67Z" style="opacity:0.2"></path><path d="M331.16,236.39l-5.36,8,12,1.91s3-7.85-.93-9.92Z" style="fill:#b55b52"></path><path d="M324.3,162.36c2,2.61,3.65,5.16,5.4,7.77s3.36,5.26,4.94,8l2.34,4.06c.75,1.38,1.51,2.75,2.24,4.14,1.49,2.75,2.85,5.59,4.2,8.43l.21.43a5.21,5.21,0,0,1,.46,1.66,73.59,73.59,0,0,1,.31,11.38,88,88,0,0,1-1.26,11.07,98.6,98.6,0,0,1-2.56,10.7c-.52,1.75-1.11,3.47-1.73,5.19s-1.3,3.37-2.12,5.15a3.59,3.59,0,0,1-6.78-2.17l0-.19c.29-1.52.59-3.26.85-4.9s.49-3.34.69-5c.4-3.34.7-6.68.83-10s.13-6.61,0-9.86a75.72,75.72,0,0,0-1.12-9.52l.67,2.08c-3-5.1-6.14-10.14-9.39-15.14q-2.44-3.73-4.91-7.46c-1.62-2.47-3.37-5-4.95-7.32l-.07-.1a7.21,7.21,0,0,1,11.74-8.36Z" style="fill:#b55b52"></path><polygon points="325.88 254.73 335.8 255.77 337.79 246.33 325.8 244.42 325.88 254.73" style="fill:#b55b52"></polygon><path d="M294.7,109c-4.58.36-8.21,7.17-6,12.59C297.06,117,302.1,108.39,294.7,109Z" style="fill:#263238"></path><path d="M312.38,127.73c-3.41,8.8-5,14.12-11,17.28-9,4.76-18.79-2.88-18.08-12.52.64-8.68,6.11-21.61,16-22.39A12.88,12.88,0,0,1,312.38,127.73Z" style="fill:#b55b52"></path><path d="M296.72,114.22c-10.16-3.84-5.37-11.19-5.37-11.19s5.21-1.76,9.13,1.28c-.56-4.24,10-5.6,10,1.2,3.68-3,12.1.61,8,8.71,4.76-3,11.24,5.44,4.4,8.43,2.76,5.61.4,10.56-14.71,11.76-2.56-2.55-1-9.6,2.72-13.92C306,120.71,298.32,119.5,296.72,114.22Z" style="fill:#263238"></path><path d="M313.78,136.2a9,9,0,0,1-6.16,3c-3.14.16-4-2.81-2.59-5.42,1.3-2.35,4.5-5.26,7.38-4.2S315.69,134,313.78,136.2Z" style="fill:#b55b52"></path><path d="M298,125.9c-.23.73-.81,1.2-1.29,1s-.67-.87-.44-1.6.81-1.2,1.29-1S298.2,125.17,298,125.9Z" style="fill:#263238"></path><path d="M289.71,123.27c-.24.73-.81,1.2-1.29,1s-.68-.87-.44-1.6.81-1.2,1.28-1S289.94,122.54,289.71,123.27Z" style="fill:#263238"></path><path d="M292.22,124.47s-3,3.68-5.48,5.14c.9,1.62,3.28,1.76,3.28,1.76Z" style="fill:#a02724"></path><path d="M293.17,134.4a7.17,7.17,0,0,1-1.66-.33.22.22,0,1,1,.13-.43,6.06,6.06,0,0,0,5.44-.76.23.23,0,0,1,.32,0,.22.22,0,0,1,0,.32A6.24,6.24,0,0,1,293.17,134.4Z" style="fill:#263238"></path><path d="M301.47,124.17a.45.45,0,0,1-.34-.36,3.59,3.59,0,0,0-1.92-2.63.45.45,0,0,1,.35-.83,4.43,4.43,0,0,1,2.45,3.29.45.45,0,0,1-.35.53A.6.6,0,0,1,301.47,124.17Z" style="fill:#263238"></path><path d="M287.55,115.89a.45.45,0,0,1-.21-.22.44.44,0,0,1,.21-.6,4.45,4.45,0,0,1,4.11,0,.44.44,0,0,1,.15.61.46.46,0,0,1-.62.16,3.55,3.55,0,0,0-3.25,0A.45.45,0,0,1,287.55,115.89Z" style="fill:#263238"></path></g></svg>
